<svg xmlns="http://www.w3.org/2000/svg" viewBox="0 0 892 441" width="892" height="441" role="img" aria-label="Cantabria Labs"><title>Cantabria Labs</title><path fill="#231f20" fill-rule="evenodd" d="M432.3 0.3C431.7 0.5, 429.9 0.7, 428.3 0.8C425.2 1, 424.1 1.2, 416.7 2.6C388.2 8.2, 355.5 27.7, 339.7 48.7C339 49.7, 337.5 51.6, 336.5 52.8C327.8 63.9, 321.8 75.1, 316.5 90C316.1 91.2, 315.1 94.6, 314.3 97.5C313.6 100.4, 312.7 103.7, 312.5 104.7C310.8 110.9, 309.4 110.5, 334.2 110.6C358 110.7, 355.8 110.3, 356.3 114.2C356.5 115.5, 356.9 118, 357.2 119.8C358.2 126.7, 359 129.7, 361.6 136.6C369.4 157, 384.4 173.3, 405 183.6C413.8 188.1, 426.6 192, 432.7 192C433.7 192, 435.5 192.2, 436.7 192.5C439.6 193.2, 450.6 193.2, 454.2 192.5C455.6 192.2, 457.7 192, 458.8 192C460.6 192, 462 191.7, 467.2 190.5C468.4 190.2, 469.6 190, 470 190C471 190, 481.3 186.2, 484.9 184.5C507.5 173.8, 525.6 153.1, 532.4 130C533.2 127.4, 533.5 126.1, 534.7 120.8C534.9 119.9, 535.2 117.5, 535.3 115.6C535.7 110, 533.1 110.6, 557.6 110.7L578.4 110.7 579.4 109.7C580.1 109, 580.3 108.5, 580.2 108.1C580.1 107.8, 579.8 106.8, 579.6 105.8C579.4 104.9, 579.1 103.4, 578.8 102.5C578.5 101.5, 578.3 100.5, 578.3 100.2C578.3 99.5, 578 98.3, 575.9 91.5C572.3 79.7, 565.4 65.8, 558.7 56.8C558 55.9, 556.6 54, 555.5 52.5C554.4 51, 552.6 48.8, 551.4 47.5C550.2 46.2, 548.1 43.9, 546.7 42.4C544.4 39.8, 536.6 32.7, 531.6 28.8C524.8 23.4, 509.6 14.5, 500.3 10.5C493.2 7.4, 479.3 3, 476.8 3C476.3 3, 474.9 2.8, 473.7 2.5C470.3 1.8, 467.2 1.3, 462.7 1C460.5 0.8, 458.1 0.5, 457.4 0.3C455.9 -0.1, 434.1 -0.1, 432.3 0.3M438 56.6C404.1 60.1, 383.9 98, 399.6 128.7C420.7 170.2, 483.5 163.9, 494.9 119.2C496.4 113.3, 496.5 112.8, 496.5 107.3C496.3 75.4, 470.9 53.3, 438 56.6M442.2 84.4C428.5 87.5, 420.7 99, 424 111.2C430 133.2, 460.1 133.7, 467.5 111.9C472.5 97.4, 457.3 80.9, 442.2 84.4M312.3 143C311.5 143.8, 311.6 149.5, 312.5 153C312.8 154.1, 313 155.5, 313 156.3C313 157, 313.2 158.2, 313.5 159C313.8 159.8, 314 160.9, 314 161.4C314 162, 314.2 163.2, 314.5 164.1C314.7 165.1, 315.2 166.8, 315.5 168C319.9 185.1, 329.1 204, 339.1 216.5C348.1 227.6, 352.5 232.1, 362.3 240C368.2 244.6, 377.9 250.6, 386.2 254.7C392.1 257.6, 392.1 257.6, 393.1 256.6L393.9 255.8 394 235.6C394 208.6, 394.4 210.9, 389.1 207.7C372.4 197.8, 357.4 182.7, 346.8 165.1C343.8 160.3, 340.2 152.8, 338.5 148.2C337.4 145.4, 336.7 143.9, 336 143.3L335 142.3 324 142.3C313.4 142.3, 313 142.4, 312.3 143M555.6 143C555.1 143.4, 554.5 144.4, 554.1 145.3C549.5 158, 545.3 165.7, 536.4 177.9C533.2 182.3, 521.6 193.9, 517 197.5C513 200.6, 506.2 205.3, 502.1 208C496.1 211.9, 496.7 208.8, 496.7 234.7C496.7 260.7, 496.2 258.6, 501.2 256.6C516 250.8, 537.2 236, 545.3 226C545.9 225.2, 547.3 223.6, 548.4 222.5C549.4 221.4, 550.9 219.7, 551.6 218.8C552.3 217.8, 553.7 215.9, 554.9 214.5C559.6 208.4, 567.2 194.9, 570.4 187C573.5 179.4, 577.9 164.5, 578.7 158.7C579 156.7, 579.5 153.4, 580 150.3C580.6 147.1, 580.4 143.5, 579.7 142.9C578.7 142, 556.8 142.1, 555.6 143"/><path fill="#231f20" fill-rule="evenodd" d="M514.7 328.2C500.6 332.1, 504 351, 518.6 349.9C526.5 349.3, 530.9 343.3, 529.3 335.7C528.2 330.4, 520.6 326.5, 514.7 328.2M381.8 331C381.1 331.2, 379.5 331.4, 378.3 331.6C372 332.7, 368.8 333.6, 367.8 334.7C366.8 335.8, 366.8 435.6, 367.8 436.7C368.7 437.5, 371.3 438.3, 374.7 438.7C376 438.8, 377.7 439.1, 378.3 439.3C379 439.5, 380.5 439.7, 381.8 439.7C383.1 439.7, 385.1 439.9, 386.3 440.2C389.7 440.9, 412.9 440.9, 415.9 440.1C430.5 436.5, 436.4 430.9, 439.1 418C440.6 411.2, 440.7 410.2, 440.6 400.4C440.6 371.6, 434.9 361.8, 416.5 358.6C411.8 357.8, 397.7 357.7, 393.5 358.5C389.5 359.2, 388.1 359.2, 387.2 358.2L386.3 357.4 386.3 345C386.3 331.7, 386.4 331.9, 385 331.2C384 330.6, 383.8 330.6, 381.8 331M255.3 331.4C240.3 334.7, 241.7 333.1, 241.7 347C241.7 360, 242.1 358.9, 237.1 359.1C232.2 359.2, 232.3 359, 232.3 366.5C232.3 373.8, 232.5 374, 238.1 374C242 374, 241.7 372.1, 241.7 397.1C241.7 427.6, 242.1 429.7, 247.7 435.4C251.9 439.7, 254.6 440.4, 266.5 440.6C279.7 440.8, 279.3 441, 279.3 432.8C279.3 425.2, 278.8 424.1, 275.5 425C269 426.8, 263.6 424.5, 262 419.5C261.2 416.9, 260.9 377.9, 261.7 375.7C262.3 374.1, 262.7 374, 270.5 374L277.7 374 278.5 373.2C279.3 372.4, 279.3 372.3, 279.3 366.8C279.3 358.5, 279.9 359, 270.2 359C263.5 359, 263 359, 262.2 358.3L261.4 357.6 261.3 345C261.1 329.6, 261.3 330.1, 255.3 331.4M766 331.2C765.9 331.2, 764 331.7, 761.7 332.1C758.3 332.8, 757.4 333.1, 756.7 333.8L755.8 334.7 755.7 384.9C755.7 440.2, 755.5 436.2, 757.7 437.6C759.3 438.5, 763.7 439.7, 765.7 439.7C766.6 439.7, 768.3 439.9, 769.5 440.2C771.2 440.7, 773.6 440.8, 785.3 440.8L799.2 440.8 802.3 439.9C814.8 436.5, 820.4 429.6, 822 415.5C823 407.1, 822.7 387.5, 821.5 382.6C821.2 381.5, 821 380.3, 821 379.9C821 372.5, 812.7 363.6, 803.3 360.8L800.2 359.9 785.1 359.8C766.6 359.8, 769 361.8, 769 346.9C769 340.4, 768.8 334.5, 768.7 333.7C768.3 331.9, 766.7 330.4, 766 331.2M658.3 332.5C655.9 333.1, 655 333.5, 654.4 334.2L653.7 335 653.7 386.7L653.7 438.3 654.5 439C656 440.1, 664.6 440, 665.9 438.9L666.8 438.1 666.7 385.8C666.6 325.9, 667 331.9, 663.5 331.8C662.3 331.7, 660.1 332.1, 658.3 332.5M27.3 358.6C12.7 361.4, 5.4 367.4, 2 379.4C-2 393.8, -0.5 418.1, 4.9 427.1C8.5 433, 18.4 439.7, 23.6 439.7C24 439.7, 25.2 439.9, 26.2 440.2C32.3 442, 62 440.1, 64.3 437.9L65.1 437.1 64.7 431.6C64 422.6, 64.1 422.7, 57.9 423.6C41.5 426.2, 28 424.2, 23.8 418.8C18.8 412.2, 19.1 386.3, 24.3 379C28.2 373.3, 46.6 371.1, 60 374.7C61.9 375.2, 62.9 375.1, 63.9 374.2L64.8 373.4 64.9 367.6C65.1 360.2, 64.2 359, 58.4 359C57.6 359, 55.6 358.8, 54 358.5C50.1 357.8, 31 357.9, 27.3 358.6M176.2 358.4C174.5 358.5, 171.6 358.7, 169.7 358.8C164.9 359.1, 157.4 360.4, 153.8 361.6C150.8 362.6, 151 359.3, 151 401.3L151 438 151.8 438.8L152.6 439.7 161.2 439.7L169.7 439.7 170.5 438.8L171.3 438 171.3 407.6L171.3 377.1 172.1 376.2C173.4 374.4, 174.1 374.3, 184.9 374.3C205.1 374.3, 204.6 373.3, 204.7 414.4C204.7 443.4, 203.2 439.7, 214.3 439.7L222.7 439.7 223.5 438.8L224.4 438 224.2 408.8C224.2 385.6, 224 379.2, 223.7 378C221.7 371.3, 220.8 369.4, 218.3 366.6C214.5 362.2, 208.7 359.6, 201.2 359C190.7 358, 182.5 357.8, 176.2 358.4M462.3 358.8C455.9 360.5, 453.6 362.4, 452 367.3C451.3 369.4, 451.3 369.8, 451.3 403.9L451.3 438.3 452.2 439C453 439.6, 453.5 439.7, 461.6 439.7L470 439.7 470.8 438.8L471.7 438 471.7 408.5C471.7 375, 471.5 377.4, 474.4 375.4C476.1 374.3, 486.3 373.9, 493.1 374.7C498.7 375.3, 499.1 374.7, 499.1 366.1L499.2 361 498.2 360.1C497.4 359.2, 497 359.1, 493.9 358.9C492 358.8, 489.2 358.6, 487.7 358.4C482.2 357.7, 465.6 358, 462.3 358.8M85.8 359.5C84.7 359.8, 83.2 360, 82.3 360C80.4 360, 76.5 361.1, 75.7 361.8C74.5 362.9, 74.7 372.4, 75.8 373.5C76.8 374.5, 79.6 374.6, 84.7 373.8C89.9 373, 106.4 373.1, 110.8 374C118.1 375.5, 121 379.2, 121 387.2C121 392.6, 122.1 392.3, 103 392.3C78.3 392.2, 72.5 395.7, 70.6 411.5C68.8 427.4, 74.7 436.6, 89.1 440.1C92.1 440.9, 120.9 440.9, 124.7 440.2C126.1 439.9, 128.7 439.5, 130.7 439.2C136.5 438.2, 137.4 438, 138.4 437L139.4 436 139.3 408.1C139.1 380.3, 139.1 380.2, 138.4 377.2C135.7 366.7, 130 361.7, 118.3 359.5C114.4 358.8, 89 358.8, 85.8 359.5M297.7 359.5C289.1 361.2, 289.3 361, 289.3 365.6C289.3 374.5, 291.4 375.8, 302.4 373.7C307.6 372.7, 325.7 373.6, 329.1 375.1C334.7 377.5, 338.2 391.7, 333.3 392.1C332.8 392.1, 325.5 392.1, 316.8 392.2C302 392.2, 301.1 392.3, 299.2 392.9C288.8 396.5, 285.4 401.5, 285.1 414C284.7 429.6, 290.3 437.2, 304.2 440.2C307.5 440.9, 334.2 440.8, 339 440.1C349.6 438.5, 352.2 437.9, 353.4 436.6L354.3 435.7 354.3 408.5C354.3 384.7, 354.3 381, 353.8 378.9C351 366.6, 346.6 362.4, 333.8 359.5C330.6 358.8, 301.5 358.8, 297.7 359.5M508.5 359.8L507.7 360.6 507.7 399.3L507.7 438 508.5 438.8L509.3 439.7 518.2 439.7L527 439.7 527.9 438.8C528.6 438.1, 528.7 437.8, 528.5 436.9C528.4 436.3, 528.2 419.3, 528.1 399.2C528.1 379, 527.9 362, 527.8 361.4C527.4 359, 527.3 359, 517.8 359L509.3 359 508.5 359.8M553.7 359.5C552.5 359.8, 550.8 360, 550.1 360C547.9 360, 545.2 360.9, 544.3 361.8L543.6 362.7 544 367.8C544.4 373.5, 544.5 373.9, 545.3 374.3C546 374.7, 553.2 374.3, 556.8 373.7C564.9 372.4, 582.1 373.6, 585.2 375.8C588.4 378, 589.8 381, 590.2 386.7C590.6 392.5, 592 392.1, 572.3 392.1C554.2 392.2, 554.2 392.2, 548.9 394.9C541.7 398.7, 538.4 406.7, 539.2 418.5C540 431, 545.5 437.1, 558.7 440.2C561.4 440.8, 589.1 440.9, 591.5 440.3C592.2 440.1, 594.2 439.9, 595.8 439.7C602.6 439, 607.9 437.8, 609 436.6C609.8 435.8, 610.1 382.2, 609.3 379.7C609.1 379, 608.8 377.6, 608.7 376.5C608.5 375.4, 607.7 373.1, 606.7 371.2C603.6 364.8, 599 361.7, 589.5 359.5C586.4 358.8, 557.1 358.8, 553.7 359.5M695.5 359.5C694.2 359.8, 692.1 360, 690.9 360C684.4 360, 682.8 361.3, 682.9 366.3C683.1 372.9, 683.1 372.9, 690.7 372.2C721.2 369.4, 728.7 372.3, 728.7 387C728.7 393.9, 730.2 393.3, 710.3 393.3C683.3 393.3, 677.7 397.3, 677.7 416.7C677.7 430, 681.8 436.3, 693 439.8C696 440.7, 725.6 441, 729 440.2C730 439.9, 731.5 439.7, 732.2 439.7C733.8 439.7, 739.8 438.5, 740.7 438C742.2 437.2, 742.2 437.8, 742 407L741.8 377.8 740.7 374.7C737.4 365.1, 733 361.6, 721.6 359.5C717.9 358.8, 699.1 358.8, 695.5 359.5M853.3 360C830.3 361.8, 824.2 390.7, 844.6 400.9C848.3 402.8, 859 406.3, 860.9 406.3C863.4 406.3, 872.4 409.4, 874.6 411C881.5 416, 879.7 426, 871.5 428.5L868.6 429.4 858.9 429.2C849.9 429.1, 846.2 428.8, 838.3 427.7C833.5 427, 832.7 427.8, 832.7 433.7C832.6 440.2, 833.7 440.6, 853.7 440.9C873.1 441.2, 878.6 440.3, 884.4 436.2C894.2 429.2, 894.9 412.2, 885.7 403C882 399.2, 876.9 397.1, 860.9 392.6C847.3 388.8, 844 385.4, 846.4 377.6C847.5 373.7, 858.4 369.7, 862.9 371.5C864.4 372.1, 885.5 372.6, 886.3 372.1C887.5 371.3, 888 369.7, 888 366.6C888 362.2, 887.3 361, 884.9 361C884.3 361, 882.7 360.8, 881.3 360.5C878.4 360, 858.4 359.6, 853.3 360M769.7 372.2C768.8 373.4, 768.6 425.2, 769.5 426.6C771.9 430, 794.9 430.4, 801.1 427.1C807.9 423.4, 809.7 418.2, 809.7 400.9C809.7 388.2, 809.2 385.1, 806.7 379.8C803.2 372.7, 800.1 371.6, 782.4 371.4L770.4 371.3 769.7 372.2M389.9 375C386.2 376, 386.5 374, 386.4 399C386.3 426.9, 385.4 425.6, 402 424.7C417.7 423.8, 420.3 420.2, 420.3 399.2C420.3 383.2, 418.3 377.4, 411.8 375C409.3 374.1, 393.1 374.1, 389.9 375M95.4 405C85.6 407.6, 85.5 422.1, 95.2 425.4C99.6 426.8, 116.7 426.7, 119.7 425.1C121.4 424.3, 121.7 406.3, 120 405C118.9 404, 99.1 404, 95.4 405M312.5 404.5C305.1 406.1, 301.6 411.7, 304 418.7C305.9 424.6, 310.2 426.3, 323.2 426.3C335.5 426.3, 335.4 426.5, 335.3 414.7L335.2 405.9 334.2 405.1L333.3 404.3 323.2 404.4C317.7 404.4, 312.9 404.5, 312.5 404.5M566.2 404.5C559.8 405.8, 557.7 408.4, 557.7 414.8C557.7 423.5, 561.3 425.7, 577.4 426.2C590.3 426.7, 590.3 426.6, 590.3 415.1L590.3 406.6 589.2 405.5L588.1 404.3 577.4 404.4C571.6 404.4, 566.5 404.5, 566.2 404.5M701.6 404.7C694.6 405.9, 691.9 408.9, 691.9 415.8C691.8 426.8, 697.2 429.3, 719.3 428.4C729 428.1, 728.7 428.4, 728.6 415.9L728.5 406.3 727.6 405.4L726.7 404.5 714.9 404.4C708.5 404.4, 702.5 404.5, 701.6 404.7"/></svg>