<svg xmlns="http://www.w3.org/2000/svg" viewBox="0 0 612 264" width="612" height="264" role="img" aria-label="Heliocare — Cantabria Labs"><title>Heliocare — Cantabria Labs</title><path fill="#231f20" fill-rule="evenodd" d="M111.6 0.1C111.4 0.1, 110.9 0.2, 110.4 0.2C109.5 0.3, 109.2 0.3, 107.1 0.8C98.9 2.3, 89.6 7.9, 85 13.9C84.8 14.2, 84.4 14.8, 84.1 15.1C81.6 18.3, 79.9 21.5, 78.4 25.8C78.3 26.1, 78 27.1, 77.8 27.9C77.5 28.8, 77.3 29.7, 77.2 30C76.8 31.8, 76.3 31.7, 83.4 31.7C90.3 31.7, 89.6 31.6, 89.8 32.7C89.9 33.1, 90 33.8, 90 34.3C90.3 36.3, 90.6 37.2, 91.3 39.1C93.6 45, 97.9 49.7, 103.7 52.6C106.3 53.9, 110 55, 111.7 55C112 55, 112.5 55.1, 112.8 55.2C113.7 55.4, 116.8 55.4, 117.8 55.2C118.3 55.1, 118.9 55, 119.2 55C119.7 55, 120.1 55, 121.6 54.6C121.9 54.5, 122.3 54.5, 122.4 54.5C122.7 54.5, 125.6 53.4, 126.6 52.9C133.1 49.8, 138.3 43.9, 140.3 37.2C140.5 36.5, 140.6 36.1, 140.9 34.6C141 34.4, 141.1 33.7, 141.1 33.1C141.2 31.5, 140.5 31.7, 147.5 31.7L153.4 31.7 153.7 31.4C153.9 31.2, 154 31.1, 154 31C153.9 30.9, 153.8 30.6, 153.8 30.3C153.7 30.1, 153.6 29.6, 153.6 29.4C153.5 29.1, 153.4 28.8, 153.4 28.7C153.4 28.5, 153.3 28.2, 152.7 26.2C151.7 22.8, 149.7 18.9, 147.8 16.3C147.6 16, 147.2 15.5, 146.9 15C146.6 14.6, 146 14, 145.7 13.6C145.4 13.2, 144.8 12.6, 144.4 12.1C143.7 11.4, 141.5 9.4, 140 8.3C138.1 6.7, 133.7 4.1, 131.1 3C129 2.1, 125 0.9, 124.3 0.9C124.2 0.9, 123.8 0.8, 123.4 0.7C122.5 0.5, 121.6 0.4, 120.3 0.3C119.6 0.2, 119 0.2, 118.8 0.1C118.3 0, 112.1 0, 111.6 0.1M113.2 16.2C103.5 17.2, 97.7 28.1, 102.2 36.9C108.3 48.8, 126.3 47, 129.5 34.2C130 32.5, 130 32.3, 130 30.8C129.9 21.6, 122.6 15.3, 113.2 16.2M114.4 24.2C110.5 25.1, 108.3 28.4, 109.2 31.9C110.9 38.2, 119.5 38.3, 121.7 32.1C123.1 27.9, 118.7 23.2, 114.4 24.2M77.2 41C77 41.2, 77 42.8, 77.2 43.9C77.3 44.2, 77.4 44.6, 77.4 44.8C77.4 45, 77.4 45.3, 77.5 45.6C77.6 45.8, 77.7 46.1, 77.7 46.3C77.7 46.4, 77.7 46.8, 77.8 47C77.9 47.3, 78 47.8, 78.1 48.1C79.4 53.1, 82 58.5, 84.9 62C87.4 65.2, 88.7 66.5, 91.5 68.8C93.2 70.1, 96 71.8, 98.4 73C100.1 73.8, 100.1 73.8, 100.3 73.5L100.6 73.3 100.6 67.5C100.6 59.8, 100.7 60.4, 99.2 59.5C94.4 56.7, 90.1 52.4, 87.1 47.3C86.2 45.9, 85.2 43.8, 84.7 42.5C84.4 41.7, 84.2 41.2, 84 41.1L83.7 40.8 80.5 40.8C77.5 40.8, 77.4 40.8, 77.2 41M146.9 41C146.8 41.1, 146.6 41.4, 146.5 41.6C145.2 45.3, 144 47.5, 141.4 51C140.5 52.2, 137.2 55.6, 135.9 56.6C134.7 57.5, 132.8 58.8, 131.6 59.6C129.8 60.7, 130 59.9, 130 67.3C130 74.7, 129.9 74.1, 131.3 73.6C135.5 71.9, 141.6 67.6, 143.9 64.8C144.1 64.5, 144.5 64.1, 144.8 63.8C145.1 63.4, 145.6 63, 145.8 62.7C146 62.4, 146.4 61.9, 146.7 61.5C148.1 59.7, 150.2 55.8, 151.2 53.6C152 51.4, 153.3 47.1, 153.5 45.5C153.6 44.9, 153.8 44, 153.9 43.1C154.1 42.2, 154 41.1, 153.8 41C153.5 40.7, 147.2 40.7, 146.9 41"/><path fill="#231f20" fill-rule="evenodd" d="M382.3 10.2C376.6 11.8, 378 19.4, 383.9 19C387.1 18.8, 388.9 16.3, 388.2 13.2C387.8 11.1, 384.7 9.5, 382.3 10.2M328.5 11.3C328.2 11.4, 327.6 11.5, 327.1 11.6C324.5 12, 323.3 12.4, 322.9 12.8C322.4 13.3, 322.4 53.7, 322.9 54.1C323.2 54.4, 324.3 54.7, 325.6 54.9C326.2 55, 326.9 55.1, 327.1 55.2C327.4 55.3, 328 55.3, 328.5 55.3C329.1 55.3, 329.9 55.4, 330.4 55.5C331.7 55.8, 341.1 55.8, 342.3 55.5C348.2 54, 350.6 51.8, 351.7 46.5C352.3 43.8, 352.3 43.4, 352.3 39.4C352.3 27.8, 350 23.8, 342.6 22.5C340.6 22.2, 335 22.2, 333.3 22.5C331.6 22.8, 331.1 22.7, 330.7 22.3L330.4 22 330.4 17C330.4 11.6, 330.4 11.7, 329.8 11.4C329.4 11.2, 329.3 11.2, 328.5 11.3M277.3 11.5C271.3 12.8, 271.8 12.2, 271.8 17.8C271.8 23.1, 272 22.6, 269.9 22.7C268 22.8, 268 22.7, 268 25.7C268 28.7, 268.1 28.7, 270.3 28.7C271.9 28.7, 271.8 28, 271.8 38.1C271.8 50.4, 272 51.3, 274.2 53.6C276 55.3, 277.1 55.6, 281.9 55.7C287.2 55.8, 287 55.9, 287 52.5C287 49.5, 286.8 49, 285.5 49.4C282.9 50.1, 280.7 49.2, 280 47.1C279.7 46.1, 279.6 30.3, 279.9 29.4C280.1 28.8, 280.3 28.7, 283.5 28.7L286.4 28.7 286.7 28.4C287 28.1, 287 28, 287 25.8C287 22.5, 287.3 22.7, 283.3 22.7C280.7 22.7, 280.5 22.7, 280.1 22.4L279.8 22.1 279.7 17C279.7 10.8, 279.8 11, 277.3 11.5M484 11.4C484 11.4, 483.2 11.6, 482.3 11.8C480.9 12.1, 480.5 12.2, 480.2 12.5L479.9 12.8 479.9 33.1C479.8 55.5, 479.8 53.9, 480.7 54.5C481.3 54.9, 483.1 55.3, 483.9 55.3C484.3 55.3, 484.9 55.4, 485.4 55.5C486.1 55.7, 487.1 55.8, 491.8 55.8L497.4 55.8 498.7 55.4C503.8 54, 506 51.2, 506.7 45.5C507.1 42.1, 506.9 34.2, 506.5 32.2C506.4 31.8, 506.3 31.3, 506.3 31.1C506.3 28.1, 502.9 24.5, 499.1 23.4L497.8 23 491.7 23C484.3 23, 485.2 23.8, 485.2 17.8C485.2 15.2, 485.2 12.8, 485.1 12.4C485 11.7, 484.3 11.1, 484 11.4M440.4 11.9C439.5 12.2, 439.1 12.3, 438.8 12.6L438.5 13 438.5 33.9L438.5 54.8 438.9 55C439.5 55.5, 443 55.5, 443.5 55L443.9 54.7 443.8 33.5C443.8 9.3, 443.9 11.7, 442.5 11.7C442.1 11.6, 441.2 11.8, 440.4 11.9M185.1 22.5C179.1 23.7, 176.2 26.1, 174.8 30.9C173.2 36.8, 173.8 46.6, 176 50.2C177.4 52.6, 181.4 55.3, 183.5 55.3C183.7 55.3, 184.2 55.4, 184.6 55.5C187.1 56.2, 199.1 55.5, 200 54.6L200.3 54.3 200.2 52.1C199.9 48.4, 199.9 48.4, 197.4 48.8C190.8 49.9, 185.3 49.1, 183.6 46.9C181.6 44.2, 181.7 33.7, 183.8 30.7C185.4 28.5, 192.9 27.6, 198.3 29C199 29.2, 199.5 29.2, 199.9 28.8L200.2 28.5 200.3 26.2C200.4 23.1, 200 22.7, 197.7 22.7C197.3 22.7, 196.5 22.6, 195.9 22.5C194.3 22.2, 186.5 22.2, 185.1 22.5M245.3 22.4C244.6 22.5, 243.4 22.5, 242.7 22.6C240.7 22.7, 237.7 23.3, 236.3 23.7C235 24.1, 235.1 22.8, 235.1 39.8L235.1 54.7 235.4 55L235.8 55.3 239.2 55.3L242.7 55.3 243 55L243.3 54.7 243.3 42.3L243.3 30 243.6 29.6C244.2 28.9, 244.5 28.9, 248.8 28.9C257 28.9, 256.8 28.5, 256.8 45.1C256.8 56.8, 256.2 55.3, 260.7 55.3L264.1 55.3 264.5 55L264.8 54.6 264.8 42.8C264.7 33.5, 264.7 30.8, 264.5 30.4C263.7 27.6, 263.4 26.9, 262.4 25.7C260.8 24, 258.4 22.9, 255.4 22.7C251.2 22.3, 247.9 22.2, 245.3 22.4M361.1 22.6C358.5 23.3, 357.6 24, 356.9 26C356.7 26.9, 356.7 27.1, 356.7 40.8L356.7 54.8 357 55C357.4 55.3, 357.5 55.3, 360.8 55.3L364.2 55.3 364.6 55L364.9 54.7 364.9 42.7C364.9 29.2, 364.8 30.1, 366 29.3C366.7 28.9, 370.8 28.7, 373.6 29C375.8 29.3, 376 29, 376 25.5L376 23.5 375.6 23.1C375.3 22.8, 375.2 22.7, 373.9 22.6C373.1 22.6, 372 22.5, 371.4 22.4C369.1 22.1, 362.4 22.2, 361.1 22.6M208.7 22.9C208.3 23, 207.7 23.1, 207.3 23.1C206.5 23.1, 205 23.5, 204.6 23.8C204.2 24.2, 204.2 28.1, 204.7 28.5C205.1 28.9, 206.2 29, 208.3 28.7C210.4 28.3, 217.1 28.4, 218.8 28.7C221.8 29.4, 223 30.9, 223 34.1C223 36.3, 223.4 36.2, 215.7 36.1C205.7 36.1, 203.3 37.5, 202.6 43.9C201.8 50.3, 204.2 54.1, 210 55.5C211.3 55.8, 222.9 55.8, 224.5 55.5C225 55.4, 226.1 55.2, 226.9 55.1C229.2 54.7, 229.6 54.6, 230 54.2L230.4 53.8 230.4 42.5C230.3 31.3, 230.3 31.2, 230 30C228.9 25.8, 226.6 23.8, 221.9 22.9C220.3 22.6, 210 22.6, 208.7 22.9M294.5 22.9C291 23.5, 291.1 23.5, 291.1 25.4C291.1 29, 291.9 29.5, 296.4 28.6C298.5 28.2, 305.8 28.6, 307.2 29.2C309.4 30.1, 310.9 35.9, 308.9 36C308.7 36.1, 305.7 36.1, 302.2 36.1C296.2 36.1, 295.8 36.1, 295.1 36.4C290.9 37.8, 289.5 39.9, 289.4 44.9C289.2 51.2, 291.5 54.3, 297.1 55.5C298.4 55.8, 309.2 55.8, 311.2 55.5C315.5 54.8, 316.5 54.6, 317 54.1L317.4 53.7 317.4 42.7C317.4 33.1, 317.4 31.6, 317.2 30.7C316.1 25.8, 314.3 24, 309.1 22.9C307.8 22.6, 296 22.6, 294.5 22.9M379.8 23L379.5 23.3 379.5 39L379.5 54.7 379.8 55L380.1 55.3 383.7 55.3L387.3 55.3 387.6 55C387.9 54.7, 388 54.5, 387.9 54.2C387.8 54, 387.8 47.1, 387.7 38.9C387.7 30.8, 387.6 23.9, 387.6 23.6C387.5 22.7, 387.4 22.7, 383.6 22.7L380.1 22.7 379.8 23M398.1 22.9C397.6 23, 396.9 23.1, 396.6 23.1C395.8 23.1, 394.7 23.4, 394.3 23.8L394 24.2 394.1 26.2C394.3 28.5, 394.4 28.7, 394.7 28.9C395 29, 397.9 28.8, 399.4 28.6C402.6 28.1, 409.6 28.6, 410.8 29.5C412.1 30.3, 412.7 31.6, 412.9 33.9C413 36.2, 413.6 36.1, 405.6 36.1C398.3 36.1, 398.3 36.1, 396.2 37.2C393.2 38.7, 391.9 42, 392.2 46.7C392.5 51.8, 394.8 54.3, 400.1 55.5C401.2 55.8, 412.4 55.8, 413.4 55.6C413.7 55.5, 414.5 55.4, 415.1 55.3C417.9 55.1, 420 54.6, 420.5 54.1C420.8 53.7, 420.9 32.1, 420.6 31C420.5 30.8, 420.4 30.2, 420.3 29.8C420.3 29.3, 419.9 28.4, 419.5 27.6C418.3 25, 416.4 23.8, 412.6 22.9C411.3 22.6, 399.5 22.6, 398.1 22.9M455.5 22.9C455 23, 454.1 23.1, 453.6 23.1C451 23.1, 450.3 23.6, 450.4 25.6C450.5 28.3, 450.4 28.3, 453.5 28C465.9 26.9, 468.9 28.1, 468.9 34C468.9 36.8, 469.5 36.6, 461.5 36.6C450.5 36.6, 448.3 38.2, 448.3 46C448.3 51.4, 449.9 54, 454.5 55.4C455.7 55.7, 467.7 55.9, 469 55.5C469.5 55.4, 470.1 55.3, 470.3 55.3C471 55.3, 473.4 54.8, 473.8 54.6C474.4 54.3, 474.4 54.6, 474.3 42.1L474.2 30.3 473.8 29C472.5 25.2, 470.7 23.7, 466 22.9C464.5 22.6, 456.9 22.6, 455.5 22.9M519.4 23.1C510 23.8, 507.5 35.5, 515.8 39.6C517.3 40.4, 521.6 41.8, 522.4 41.8C523.4 41.8, 527.1 43.1, 528 43.7C530.7 45.7, 530 49.8, 526.7 50.8L525.5 51.2 521.6 51.1C518 51, 516.5 50.9, 513.3 50.5C511.3 50.2, 511 50.5, 511 52.9C511 55.5, 511.4 55.7, 519.5 55.8C527.3 55.9, 529.6 55.6, 531.9 53.9C535.9 51.1, 536.2 44.2, 532.4 40.5C530.9 39, 528.9 38.1, 522.4 36.3C516.9 34.7, 515.6 33.4, 516.5 30.2C517 28.6, 521.4 27, 523.2 27.7C523.8 28, 532.4 28.2, 532.7 28C533.2 27.7, 533.4 27, 533.4 25.7C533.4 24, 533.1 23.5, 532.1 23.5C531.9 23.5, 531.2 23.4, 530.7 23.3C529.5 23.1, 521.4 22.9, 519.4 23.1M485.5 28C485.1 28.5, 485 49.5, 485.4 50C486.4 51.4, 495.7 51.6, 498.2 50.2C501 48.7, 501.7 46.6, 501.7 39.6C501.7 34.5, 501.5 33.2, 500.5 31.1C499.1 28.2, 497.8 27.8, 490.7 27.7L485.8 27.7 485.5 28M331.8 29.1C330.3 29.5, 330.4 28.7, 330.4 38.9C330.3 50.2, 330 49.6, 336.7 49.2C343.1 48.9, 344.1 47.4, 344.1 39C344.1 32.5, 343.3 30.1, 340.7 29.2C339.7 28.8, 333.1 28.8, 331.8 29.1M212.6 41.3C208.7 42.3, 208.6 48.2, 212.5 49.5C214.3 50.1, 221.2 50.1, 222.5 49.4C223.1 49.1, 223.2 41.8, 222.6 41.3C222.1 40.9, 214.1 40.9, 212.6 41.3M300.5 41.1C297.5 41.7, 296.1 44, 297 46.8C297.8 49.2, 299.5 49.9, 304.8 49.9C309.8 49.9, 309.7 50, 309.7 45.2L309.6 41.7 309.3 41.3L308.9 41 304.8 41C302.6 41, 300.6 41.1, 300.5 41.1M403.1 41.1C400.5 41.6, 399.7 42.7, 399.7 45.2C399.7 48.8, 401.2 49.6, 407.7 49.9C412.9 50.1, 412.9 50, 412.9 45.4L412.9 41.9 412.5 41.5L412 41 407.7 41C405.3 41, 403.3 41.1, 403.1 41.1M457.9 41.2C455.1 41.7, 454 42.9, 454 45.7C454 50.1, 456.1 51.1, 465.1 50.8C469 50.6, 468.9 50.8, 468.9 45.7L468.8 41.8 468.5 41.5L468.1 41.1 463.3 41.1C460.7 41, 458.3 41.1, 457.9 41.2"/><path fill="#ef6828" fill-rule="evenodd" d="M272.9 110.6C262.5 113.4, 254.9 122, 253.1 133.1C251.8 140.7, 252.2 237.8, 253.4 243.1C260.2 270.9, 301 269.8, 307.6 241.6C308.7 236.6, 308.8 137.5, 307.6 131.9C304.4 116.5, 288.1 106.5, 272.9 110.6M353.9 110.4C344 112.3, 335.5 121.3, 333.2 132.1C332 138.3, 331.8 234, 333 240.7C338.8 271, 381.8 271.1, 387.5 240.8C390.9 222.9, 386.4 209.6, 379.3 216.6L377.6 218.4 377.2 228C376.3 254.9, 350.5 262.3, 344 237.5C343.1 234, 342.9 141.5, 343.8 136.8C347.3 118.5, 369.1 115.9, 375.9 132.9C376.9 135.3, 377 137, 377.3 146.4L377.6 157.3 379 158.8C386.5 166.7, 391.7 147.4, 386.9 129.6C383.1 115.8, 368.8 107.4, 353.9 110.4M4.1 111.8C3.5 112, 2.5 112.8, 1.8 113.6L0.6 114.9 0.4 186.2C0.3 264.5, 0.1 259.4, 3.3 261.1C5.1 262, 7 262.1, 8.7 261.1C11.7 259.6, 11.5 261.3, 11.8 227.9C12.1 188.5, 10.3 192.3, 28.4 192.3C46.3 192.4, 44.5 188.5, 44.8 227.4L45.1 258.3 46.5 259.8C49.1 262.5, 53.2 262.3, 55.3 259.3C56.3 257.9, 56.3 257, 56.2 186.4L56.1 114.9 54.6 113.4C51.7 110.3, 46.5 111.9, 45.3 116.3C45 117.4, 44.8 128.8, 44.8 147C44.8 184.2, 46.7 180.5, 27.8 180.2L15.3 180.1 13.7 178.5L12.1 176.8 11.8 145.8L11.6 114.9 10 113.3C8.4 111.7, 5.8 111, 4.1 111.8M86.3 112.2C85.4 112.7, 84.2 113.7, 83.6 114.5L82.6 115.9 82.6 187.1L82.6 258.3 84.2 260L85.8 261.6 106.6 261.6L127.4 261.6 129.1 259.7C131.1 257.5, 131.3 255.5, 129.8 252.9C128 250, 126.7 249.8, 112.1 249.9C98.1 250.1, 97.3 250, 95 247.5L93.8 246.2 93.8 221.7C93.8 190.5, 92.6 193.2, 106.8 192.8C115.3 192.6, 116.2 192.5, 117.6 191.5C120.8 189.2, 121.1 184.9, 118.3 182.1L116.8 180.6 107.2 180.3C92.4 180, 93.7 182.9, 93.9 151.7L94.1 126.9 95.7 125.2L97.3 123.6 111.3 123.3L125.4 123.1 127.1 121.2C129.6 118.5, 129.5 115.9, 126.9 113.3L124.9 111.3 106.5 111.3C89.9 111.3, 87.9 111.4, 86.3 112.2M428.9 112.2C425.1 114, 423.6 118, 422.8 128C422.5 131.6, 421.6 137.9, 420.8 141.8C420 145.8, 419.1 151.9, 418.8 155.3C418.5 158.8, 417.6 164.9, 416.8 168.8C416 172.8, 415.1 178.7, 414.8 181.8C414.5 185, 413.6 191.2, 412.8 195.6C412 200, 411 206.7, 410.6 210.6C410.1 214.4, 409.1 221.2, 408.3 225.6C407.5 230, 406.6 236.1, 406.3 239.1C406 242.1, 405.2 247.4, 404.6 250.8C403.2 258, 403.5 259.6, 406.2 261.1C411.3 263.7, 414.3 260.8, 415.6 252.5C416 249.5, 416.8 245.1, 417.3 242.6C417.8 240.1, 418.5 235.9, 418.8 233.2C419.4 227.7, 419.5 227.2, 421.8 225.1L423.4 223.6 434.5 223.6C449.5 223.6, 449.7 223.7, 451.1 235.2C451.5 238.7, 452.2 243.2, 452.6 245.1C453.3 248.5, 454.8 256.7, 454.8 257.5C454.8 260.1, 460.4 262.6, 463.1 261.1C466.4 259.3, 466.6 257.8, 464.8 249.4C464 245.4, 463.1 239.3, 462.8 235.9C462.5 232.5, 461.8 227.5, 461.3 224.9C459.6 217.1, 459.4 215.4, 458.8 209C458.5 205.6, 457.6 199.8, 456.8 196C456 192.2, 455.2 186.8, 455 184.1C454.9 181.3, 454.1 175.7, 453.3 171.6C452.5 167.5, 451.5 160.9, 451.1 157.1C450.7 153.2, 449.9 147.7, 449.3 144.8C448.7 142, 447.8 135.8, 447.3 131.1C445.6 116.8, 444.5 113.7, 440.5 112C438.1 111.1, 431 111.2, 428.9 112.2M488.3 112.2C487.4 112.7, 486.2 113.7, 485.6 114.5L484.6 115.9 484.6 187.1L484.6 258.3 486 259.8C487.8 261.7, 490.1 262.2, 492.2 261.1C495.5 259.4, 495.4 261, 495.5 227.7C495.6 191.5, 495.2 193, 503.3 192.5C512.7 191.8, 520.6 194.9, 524.8 201.1C527.5 205.2, 527.5 204.7, 527.8 232.5L528.1 258.3 529.7 260C532.1 262.3, 535.5 262.3, 537.9 260L539.6 258.3 539.7 236C539.9 204.8, 539.3 200.9, 532.7 192.3C528.5 186.9, 528.6 186.2, 532.8 180.5C544 165.8, 542.6 133.2, 530.3 120.8C522.4 112.8, 497 107.6, 488.3 112.2M567.5 111.8C563 113.7, 563.2 108.5, 563.4 188.5L563.6 258.3 565.2 260L566.8 261.6 587.1 261.7C604.5 261.9, 607.5 261.8, 608.8 261.1C612.2 259.3, 612.7 254.5, 609.8 251.6L608.3 250.1 594.9 250.1C579.5 250, 578.5 249.9, 576.5 247.8L575.1 246.3 575.1 221.3L575.1 196.4 576.7 194.7L578.3 193.1 587.2 192.8C594.6 192.6, 596.3 192.4, 597.4 191.7C600.7 189.6, 601.1 185, 598.3 182.1L596.8 180.6 587.5 180.3L578.2 180.1 576.5 178.2L574.8 176.4 574.8 152.6C574.8 120.7, 573.2 123.4, 591.9 123.3C605.4 123.3, 606.7 123.1, 608.7 120.6C611 117.7, 609.6 113.6, 606 112C604.1 111.2, 569.4 111.1, 567.5 111.8M153.1 112.9C150.2 115.2, 150.3 111.3, 150.3 187.2C150.3 256.4, 150.3 257.1, 151.3 258.8C153.2 261.8, 153.8 261.9, 174.8 261.7L193.7 261.6 195.3 260.1C197.6 257.9, 197.5 254.2, 195 251.8L193.2 250.1 179.9 250.1C167.8 250.1, 166.4 250, 165 249.1C161.6 247.1, 161.8 252.3, 161.8 181.8C161.8 141.7, 161.6 117.5, 161.3 116.4C160.1 112.2, 156.1 110.6, 153.1 112.9M218.4 113.6C216.2 116.1, 216.2 113.5, 216.4 188.9L216.6 258.3 218 259.8C220.9 262.9, 225.8 260.6, 227.2 255.6C227.8 253.4, 228.1 120.8, 227.5 117.2C226.7 112.2, 221.4 110.1, 218.4 113.6M276.6 121.8C270.3 123.4, 266.1 128, 264.3 135.2C263.3 139.1, 263.3 140.5, 263.4 187.9L263.6 236.6 264.7 239.9C269.8 254.9, 288.6 255.8, 295.6 241.5L297.1 238.6 297.1 186.6L297.1 134.6 295.6 131.8C291.8 124.3, 283.5 119.9, 276.6 121.8M497.8 125.2L496 127.1 495.6 134.1C494.8 150.6, 495.2 175.5, 496.3 177.2C500.4 184, 518.2 180.9, 524.5 172.4C527.9 167.8, 529.4 142.6, 526.7 135.4C523.6 127.2, 516.9 123.3, 505.7 123.3L499.7 123.3 497.8 125.2M432.8 140.3C432 141.9, 430.9 147.7, 430.6 152.8C430.4 155.5, 429.6 161, 428.7 165.1C427.9 169.2, 427 175.4, 426.7 178.8C426.5 182.3, 425.6 188.1, 424.8 191.7C420.8 209.7, 421.8 211.8, 434.8 211.8C447.2 211.8, 447.9 210.9, 445.6 196.9C444.9 192.9, 443.8 185.3, 443.1 180.1C442.4 174.9, 441.1 166.3, 440.3 161.1C439.5 155.9, 438.7 150.4, 438.6 148.8C438.1 144.6, 437.2 140.7, 436.7 140C435.9 139, 433.4 139.2, 432.8 140.3"/></svg>